Coordinates
version=1
nRows=13
nColumns=40
inDegrees=yes

Units are S.I. units (second, meters, Newtons, ...)
Angles are in degrees.

endheader
time	pelvis_tilt	pelvis_list	pelvis_rotation	pelvis_tx	pelvis_ty	pelvis_tz	hip_flexion_r	hip_adduction_r	hip_rotation_r	knee_angle_r	knee_angle_r_beta	ankle_angle_r	subtalar_angle_r	mtp_angle_r	hip_flexion_l	hip_adduction_l	hip_rotation_l	knee_angle_l	knee_angle_l_beta	ankle_angle_l	subtalar_angle_l	mtp_angle_l	lumbar_extension	lumbar_bending	lumbar_rotation	arm_flex_r	arm_add_r	arm_rot_r	elbow_flex_r	pro_sup_r	wrist_flex_r	wrist_dev_r	arm_flex_l	arm_add_l	arm_rot_l	elbow_flex_l	pro_sup_l	wrist_flex_l	wrist_dev_l
     19.44750000	     -3.53520224	     -4.42369405	      4.62992774	      1.04961775	      0.92977910	      0.50004311	     10.49120559	      2.84343063	    -15.43226331	     16.82925439	     16.82925439	     11.43823405	     -4.45310811	     -5.12274644	     34.03918022	    -12.70799946	     -2.10125901	     44.49111727	     44.49111727	     10.49512486	    -18.91395920	     16.14881766	    -11.15316485	      5.71517225	      2.98731458	     19.75693886	    -18.71338935	      0.36973575	     58.56470626	     44.96348790	      0.00000000	      0.00000000	      1.74699696	    -11.25423609	     -6.36572509	     31.14008971	     46.92839221	      0.00000000	      0.00000000
     19.46100000	     -3.68389106	     -4.42092000	      5.04133694	      1.04835530	      0.92978463	      0.49986565	     10.06604810	      2.85407868	    -15.95767408	     16.30349118	     16.30349118	     11.45643394	     -4.03283771	     -5.59366588	     34.11931708	    -12.18036363	     -2.06942491	     40.63910745	     40.63910745	      9.85953406	    -18.70667498	     14.75984464	    -11.29133472	      5.73833524	      3.20596201	     19.28948822	    -19.36890534	      0.65368885	     63.04392682	     44.82525322	      0.00000000	      0.00000000	      1.46340019	    -11.18548390	     -6.41506008	     29.91861270	     46.88926466	      0.00000000	      0.00000000
     19.47450000	     -4.01959927	     -4.63169707	      5.36080646	      1.04688982	      0.92923790	      0.49972632	     10.07628033	      3.07624216	    -16.20693612	     16.14419770	     16.14419770	     11.58055671	     -4.12591079	     -5.64544492	     34.58474108	    -11.81266502	     -1.68709225	     37.28604833	     37.28604833	      9.99450268	    -17.97892174	     15.09000678	    -11.10181591	      5.94213477	      3.39901998	     20.08560267	    -19.55608015	      0.49343272	     63.64260929	     44.81625900	      0.00000000	      0.00000000	      0.84931603	    -11.12004426	     -6.39765606	     29.63646632	     46.87429284	      0.00000000	      0.00000000
     19.48800000	     -4.16285962	     -4.37564477	      5.67904609	      1.04571111	      0.92942770	      0.49913190	      9.52534887	      2.83258334	    -16.56868157	     15.43996712	     15.43996712	     11.65169899	     -3.64235940	     -5.77882036	     34.37139136	    -10.85142912	     -1.16233703	     33.59052409	     33.59052409	      9.34527141	    -17.62706834	     14.46805120	    -11.24989962	      5.63601033	      2.75608533	     20.69303423	    -19.09202497	      0.47607890	     66.60817673	     44.73250671	      0.00000000	      0.00000000	     -0.15080676	    -11.21821512	     -6.27774965	     29.08070915	     46.82285645	      0.00000000	      0.00000000
     19.50150000	     -4.39439991	     -4.36190727	      5.88795497	      1.04456772	      0.92911401	      0.49868080	      9.26370997	      2.82132904	    -16.82628455	     15.06111582	     15.06111582	     11.70959077	     -3.39284683	     -6.13499900	     34.36381672	    -10.30507550	     -0.71217061	     30.34237089	     30.34237089	      8.33326667	    -16.68076416	     12.12510269	    -11.25736163	      5.56948510	      3.28483907	     20.39048261	    -19.56276767	      0.12022245	     69.86104484	     44.69240148	      0.00000000	      0.00000000	     -0.58821332	    -11.17647907	     -5.69856550	     29.00313898	     46.67195269	      0.00000000	      0.00000000
     19.51500000	     -4.58513730	     -4.30267348	      6.05838528	      1.04347488	      0.92891749	      0.49811297	      8.95057334	      2.77406527	    -16.99486916	     14.68208140	     14.68208140	     11.87707268	     -3.20302997	     -6.19743070	     34.40909964	     -9.77878761	     -0.24298242	     27.72424070	     27.72424070	      8.31034651	    -15.15462894	     12.25375053	    -11.23212956	      5.45313906	      3.16874470	     21.22541206	    -19.25568457	      0.06724809	     71.15083770	     44.66257522	      0.00000000	      0.00000000	     -1.35214774	    -11.15523644	     -5.59333204	     28.73263241	     46.63625017	      0.00000000	      0.00000000
     19.52850000	     -4.79709593	     -4.35628949	      6.20664215	      1.04244409	      0.92862276	      0.49750734	      8.66181793	      2.83747324	    -17.21154088	     14.29552782	     14.29552782	     11.97576234	     -2.87963122	     -6.26898793	     34.55738116	     -9.42078101	      0.23382542	     25.61133208	     25.61133208	      8.31367532	    -13.56135227	     12.18679533	    -11.20960409	      5.45081241	      3.05131179	     21.99278235	    -19.05030109	      0.04778779	     72.75026905	     44.62157532	      0.00000000	      0.00000000	     -2.09429421	    -11.04907926	     -5.48476690	     28.64496954	     46.59963005	      0.00000000	      0.00000000
     19.54200000	     -5.05696321	     -4.44532641	      6.28822242	      1.04152360	      0.92818601	      0.49677337	      8.46485716	      2.92547907	    -17.35166074	     13.98918146	     13.98918146	     12.11375938	     -2.67112821	     -6.32846950	     34.80690985	     -9.13706533	      0.68703017	     24.03168519	     24.03168519	      8.28635836	    -12.22748087	     12.18340852	    -11.07144152	      5.49049820	      3.14668769	     22.77444024	    -18.93840144	      0.00220902	     73.90442308	     44.59245735	      0.00000000	      0.00000000	     -2.69567270	    -10.86972042	     -5.41461213	     28.57336228	     46.57464806	      0.00000000	      0.00000000
     19.55550000	     -5.07528958	     -4.48392240	      6.32641310	      1.04107059	      0.92805319	      0.49599657	      7.83203966	      2.99449198	    -17.68604295	     13.42837848	     13.42837848	     12.23455768	     -1.88255204	     -6.54758542	     34.74091062	     -8.98236191	      0.65501657	     22.85630328	     22.85630328	      8.00081249	    -10.74704265	     11.06892490	    -11.26544016	      5.49300499	      3.38144968	     22.69333865	    -19.06231238	      0.02633843	     77.73331336	     44.50869743	      0.00000000	      0.00000000	     -3.59825188	    -10.83583722	     -4.94106585	     29.58925587	     46.45592959	      0.00000000	      0.00000000
     19.56900000	     -5.32691071	     -4.56553775	      6.28313126	      1.04051086	      0.92757416	      0.49514115	      7.59770095	      3.08366687	    -17.65751884	     13.11137457	     13.11137457	     12.38064266	     -1.70008793	     -6.56264739	     34.94214750	     -8.80224917	      0.81775879	     22.13203666	     22.13203666	      7.83289012	    -10.09811707	     11.11162366	    -11.07477611	      5.49612460	      3.52977102	     23.55468917	    -18.84571280	     -0.08094493	     78.50148328	     44.49470984	      0.00000000	      0.00000000	     -4.11217533	    -10.62043186	     -4.83939874	     29.41177058	     46.42980996	      0.00000000	      0.00000000
     19.58250000	     -5.32944487	     -4.63493623	      6.24882018	      1.04052120	      0.92741860	      0.49418362	      6.87165509	      3.22658320	    -17.77055103	     12.43970878	     12.43970878	     12.50508598	     -1.14661724	     -6.53079124	     34.78836033	     -8.71244578	      0.69429372	     21.74658066	     21.74658066	      7.70837709	     -9.44676555	     10.83005468	    -11.12148906	      5.51237580	      3.24976389	     24.25579298	    -18.09860790	     -0.04694462	     80.26798242	     44.44917855	      0.00000000	      0.00000000	     -4.88238848	    -10.52726438	     -4.66026772	     29.32915351	     46.38401500	      0.00000000	      0.00000000
     19.59600000	     -5.40154163	     -4.78811381	      6.11272322	      1.04067999	      0.92691475	      0.49320576	      6.31445039	      3.40208750	    -17.93325651	     11.96996128	     11.96996128	     12.71168679	     -0.37675475	     -6.60448880	     34.68424498	     -8.75283563	      0.44675531	     21.68718025	     21.68718025	      7.21657259	     -9.24384429	      9.76025336	    -11.08672294	      5.58803640	      3.67134653	     24.43215891	    -18.16684083	     -0.08090331	     82.52974009	     44.41839331	      0.00000000	      0.00000000	     -5.55650470	    -10.40139202	     -4.18179057	     30.19235935	     46.28214809	      0.00000000	      0.00000000
     19.60950000	     -5.47518902	     -4.94988581	      5.94380921	      1.04108147	      0.92632102	      0.49214384	      5.76498448	      3.60630020	    -17.86257162	     11.52674237	     11.52674237	     12.89129795	     -0.01307579	     -6.57993672	     34.48395620	     -8.79106183	      0.23930271	     21.84098236	     21.84098236	      6.93514953	     -9.44322548	      9.62393453	    -10.95000523	      5.67309440	      3.69223400	     25.17605754	    -17.64813191	     -0.10187528	     83.48385602	     44.40082627	      0.00000000	      0.00000000	     -6.06745828	    -10.22034656	     -4.00239027	     30.08087871	     46.24397354	      0.00000000	      0.00000000
